subject_05
version=1
nRows=246
nColumns=3
inDegrees=yes
endheader
time	r_shoulder_elev	r_elbow_flex
45.5900	19.716728	115.622972
45.6000	19.716728	115.762076
45.6100	19.716728	115.633013
45.6200	19.716728	115.299930
45.6300	19.716728	114.925505
45.6400	19.716728	114.694017
45.6500	19.716728	114.725249
45.6600	19.716728	115.019377
45.6700	19.716728	115.457479
45.6800	19.716728	115.855867
45.6900	19.716728	116.047899
45.7000	19.716728	115.955534
45.7100	19.716728	115.619325
45.7200	19.716728	115.175872
45.7300	19.716728	114.795890
45.7400	19.716728	114.612631
45.7500	19.716728	114.672229
45.7600	19.716728	114.925021
45.7700	19.716728	115.257109
45.7800	19.716728	115.543550
45.7900	19.716728	115.697214
45.8000	19.716728	115.693190
45.8100	19.716728	115.562753
45.8200	19.716728	115.366050
45.8300	19.716728	115.161056
45.8400	19.716728	114.984714
45.8500	19.716728	114.852423
45.8600	19.716728	114.770368
45.8700	19.716728	114.748194
45.8800	19.716728	114.800872
45.8900	19.716728	114.936977
45.9000	19.716728	115.140880
45.9100	19.716728	115.362174
45.9200	19.716728	115.523328
45.9300	19.716728	115.546971
45.9400	19.716728	115.392272
45.9500	19.716728	115.082469
45.9600	19.716728	114.707137
45.9700	19.716728	114.394056
45.9800	19.716728	114.259405
45.9900	19.716728	114.357281
46.0000	19.716728	114.651885
46.0100	19.716728	115.026827
46.0200	19.716728	115.329659
46.0300	19.716728	115.433529
46.0400	19.716728	115.289396
46.0500	19.716728	114.945832
46.0600	19.716728	114.527652
46.0700	19.716728	114.182835
46.0800	19.716728	114.021150
46.0900	19.716728	114.071106
46.1000	19.716728	114.273029
46.1100	19.716728	114.509532
46.1200	19.716728	114.658199
46.1300	19.716728	114.642357
46.1400	19.716728	114.458202
46.1500	19.716728	114.168523
46.1600	19.716728	113.868780
46.1700	19.716728	113.643077
46.1800	19.716728	113.530345
46.1900	19.716728	113.514396
46.2000	19.716728	113.539195
46.2100	19.716728	113.539072
46.2200	19.716728	113.468121
46.2300	19.716728	113.315595
46.2400	19.716728	113.102672
46.2500	19.716728	112.865654
46.2600	19.716728	112.636424
46.2700	19.716728	112.430452
46.2800	19.716728	112.246740
46.2900	19.716728	112.076645
46.3000	19.716728	111.913847
46.3100	19.716728	111.758158
46.3200	19.716728	111.610899
46.3300	19.716728	111.465848
46.3400	19.716728	111.303361
46.3500	19.716728	111.093945
46.3600	19.716728	110.811785
46.3700	19.716728	110.451941
46.3800	19.716728	110.041086
46.3900	19.716728	109.633543
46.4000	19.716728	109.291389
46.4100	19.716728	109.056188
46.4200	19.716728	108.925704
46.4300	19.716728	108.848221
46.4400	19.716728	108.739619
46.4500	19.716728	108.517471
46.4600	19.716728	108.137463
46.4700	19.716728	107.615108
46.4800	19.716728	107.021709
46.4900	19.716728	106.455189
46.5000	19.716728	105.998352
46.5100	19.716728	105.683458
46.5200	19.716728	105.479400
46.5300	19.716728	105.307367
46.5400	19.716728	105.077503
46.5500	19.716728	104.729214
46.5600	19.716728	104.256255
46.5700	19.716728	103.705242
46.5800	19.716728	103.149203
46.5900	19.716728	102.649817
46.6000	19.716728	102.227200
46.6100	19.716728	101.852020
46.6200	19.716728	101.463408
46.6300	19.716728	101.003203
46.6400	19.716728	100.448942
46.6500	19.716728	99.828666
46.6600	19.716728	99.209635
46.6700	19.716728	98.666016
46.6800	19.716728	98.241069
46.6900	19.716728	97.922245
46.7000	19.716728	97.641593
46.7100	19.716728	97.302004
46.7200	19.716728	96.817762
46.7300	19.716728	96.151448
46.7400	19.716728	95.331225
46.7500	19.716728	94.441547
46.7600	19.716728	93.592040
46.7700	19.716728	92.878009
46.7800	19.716728	92.348210
46.7900	19.716728	91.990901
46.8000	19.716728	91.740647
46.8100	19.716728	91.500429
46.8200	19.716728	91.169602
46.8300	19.716728	90.669119
46.8400	19.716728	89.959289
46.8500	19.716728	89.049086
46.8600	19.716728	87.997443
46.8700	19.716728	86.905919
46.8800	19.716728	85.900709
46.8900	19.716728	85.102956
46.9000	19.716728	84.590918
46.9100	19.716728	84.364263
46.9200	19.716728	84.325690
46.9300	19.716728	84.293804
46.9400	19.716728	84.051857
46.9500	19.716728	83.421837
46.9600	19.716728	82.338846
46.9700	19.716728	80.894356
46.9800	19.716728	79.324007
46.9900	19.716728	77.935476
47.0000	19.716728	76.997467
47.0100	19.716728	76.631016
47.0200	19.716728	76.748791
47.0300	19.716728	77.072794
47.0400	19.716728	77.230389
47.0500	19.716728	76.895079
47.0600	19.716728	75.916729
47.0700	19.716728	74.386673
47.0800	19.716728	72.607672
47.0900	19.716728	70.977609
47.1000	19.716728	69.832776
47.1100	19.716728	69.315033
47.1200	19.716728	69.318356
47.1300	19.716728	69.537205
47.1400	19.716728	69.595845
47.1500	19.716728	69.203162
47.1600	19.716728	68.267001
47.1700	19.716728	66.920496
47.1800	19.716728	65.451994
47.1900	19.716728	64.172524
47.2000	19.716728	63.281267
47.2100	19.716728	62.788423
47.2200	19.716728	62.527082
47.2300	19.716728	62.244307
47.2400	19.716728	61.725814
47.2500	19.716728	60.894813
47.2600	19.716728	59.839706
47.2700	19.716728	58.760322
47.2800	19.716728	57.861420
47.2900	19.716728	57.246740
47.3000	19.716728	56.865606
47.3100	19.716728	56.537841
47.3200	19.716728	56.044388
47.3300	19.716728	55.239029
47.3400	19.716728	54.126223
47.3500	19.716728	52.866342
47.3600	19.716728	51.704480
47.3700	19.716728	50.855931
47.3800	19.716728	50.402583
47.3900	19.716728	50.249839
47.4000	19.716728	50.165339
47.4100	19.716728	49.882279
47.4200	19.716728	49.219699
47.4300	19.716728	48.164067
47.4400	19.716728	46.874628
47.4500	19.716728	45.610524
47.4600	19.716728	44.613913
47.4700	19.716728	44.003168
47.4800	19.716728	43.724721
47.4900	19.716728	43.584103
47.5000	19.716728	43.339751
47.5100	19.716728	42.814551
47.5200	19.716728	41.973202
47.5300	19.716728	40.930826
47.5400	19.716728	39.891373
47.5500	19.716728	39.047127
47.5600	19.716728	38.487846
47.5700	19.716728	38.161985
47.5800	19.716728	37.906606
47.5900	19.716728	37.529693
47.6000	19.716728	36.904339
47.6100	19.716728	36.029774
47.6200	19.716728	35.031115
47.6300	19.716728	34.099270
47.6400	19.716728	33.400536
47.6500	19.716728	32.998789
47.6600	19.716728	32.826111
47.6700	19.716728	32.714185
47.6800	19.716728	32.470432
47.6900	19.716728	31.962964
47.7000	19.716728	31.175943
47.7100	19.716728	30.212103
47.7200	19.716728	29.244168
47.7300	19.716728	28.439595
47.7400	19.716728	27.893203
47.7500	19.716728	27.596017
47.7600	19.716728	27.450104
47.7700	19.716728	27.317931
47.7800	19.716728	27.080793
47.7900	19.716728	26.680101
47.8000	19.716728	26.126676
47.8100	19.716728	25.480029
47.8200	19.716728	24.813160
47.8300	19.716728	24.182415
47.8400	19.716728	23.615473
47.8500	19.716728	23.118309
47.8600	19.716728	22.690998
47.8700	19.716728	22.338594
47.8800	19.716728	22.068413
47.8900	19.716728	21.875410
47.9000	19.716728	21.726675
47.9100	19.716728	21.558484
47.9200	19.716728	21.293299
47.9300	19.716728	20.872451
47.9400	19.716728	20.289611
47.9500	19.716728	19.606622
47.9600	19.716728	18.939705
47.9700	19.716728	18.417727
47.9800	19.716728	18.128702
47.9900	19.716728	18.078341
48.0000	19.716728	18.181023
48.0100	19.716728	18.289856
48.0200	19.716728	18.254776
48.0300	19.716728	17.984215
48.0400	19.716728	17.483339
